<svg xmlns="http://www.w3.org/2000/svg" xmlns:xlink="http://www.w3.org/1999/xlink" viewBox="0 0 1487.13 198.17"><defs><style>.cls-1{fill:#252a2c;}.cls-2{fill:url(#S_C_Verlauf_RGB);}</style><linearGradient id="S_C_Verlauf_RGB" x1="620.88" y1="178.26" x2="745.21" y2="53.92" gradientUnits="userSpaceOnUse"><stop offset="0" stop-color="#a46ef1"/><stop offset="1" stop-color="#006ef1"/></linearGradient></defs><title>share-and-charge-one-line-logo</title><g id="Ebene_2" data-name="Ebene 2"><g id="Ebene_2-2" data-name="Ebene 2"><path class="cls-1" d="M57.75,85.3H40.92V81.5a18,18,0,0,0-2.72-10Q35.47,67.3,29,67.31a11,11,0,0,0-5.69,1.32A9.79,9.79,0,0,0,19.88,72a14.26,14.26,0,0,0-1.73,4.79,31.7,31.7,0,0,0-.5,5.69c0,2.31.09,4.26.25,5.86a10.44,10.44,0,0,0,1.24,4.12A9.39,9.39,0,0,0,22,95.53a26.13,26.13,0,0,0,5.2,2.64l12.86,5.11a32.06,32.06,0,0,1,9.08,5,20.39,20.39,0,0,1,5.36,6.77A28.42,28.42,0,0,1,57.09,124a89,89,0,0,1,.66,11.47,60.36,60.36,0,0,1-1.49,13.77,29,29,0,0,1-4.86,10.89,23.41,23.41,0,0,1-9,7.18,32,32,0,0,1-13.69,2.64,30.18,30.18,0,0,1-11.39-2.14A27.12,27.12,0,0,1,2.23,153.11,27.28,27.28,0,0,1,0,142.06v-6.27H16.83v5.28a13.78,13.78,0,0,0,2.72,8.33q2.73,3.71,9.16,3.71a14.67,14.67,0,0,0,6.68-1.24A8.44,8.44,0,0,0,39,148.41a14.19,14.19,0,0,0,1.57-5.53q.33-3.3.33-7.26a71.12,71.12,0,0,0-.33-7.59,12.07,12.07,0,0,0-1.4-4.78,8.61,8.61,0,0,0-3-3,40,40,0,0,0-5-2.48l-12-5q-10.89-4.45-14.6-11.8T.82,82.66A42.68,42.68,0,0,1,2.64,70.12,29.48,29.48,0,0,1,8,59.88,25.6,25.6,0,0,1,17,53a29.5,29.5,0,0,1,12.7-2.56,28,28,0,0,1,11.47,2.31,28.63,28.63,0,0,1,8.91,6.11,27.24,27.24,0,0,1,5.69,8.49,24.7,24.7,0,0,1,2,9.66Z"/><path class="cls-1" d="M121.11,51.47h16.83V101.8h20.79V51.47h16.83V169H158.73v-52.3H137.94V169H121.11Z"/><path class="cls-1" d="M260.86,51.47h14L301.12,169H284.29l-5-25.24H256.41l-5,25.24H234.63ZM268,85.3h-.33l-8.25,42.57h16.83Z"/><path class="cls-1" d="M360.19,51.47h27.06Q417,51.47,417,86a43.51,43.51,0,0,1-3.22,17.57,24.86,24.86,0,0,1-11.3,11.8L420.58,169H402.76l-15.67-50.16H377V169H360.19ZM377,103.94h9.57a16.88,16.88,0,0,0,7.1-1.24,9.09,9.09,0,0,0,4-3.54,15.19,15.19,0,0,0,1.9-5.7,54.73,54.73,0,0,0,.49-7.83,54.78,54.78,0,0,0-.49-7.84A14.09,14.09,0,0,0,397.56,72a9.39,9.39,0,0,0-4.37-3.55,20,20,0,0,0-7.42-1.15H377Z"/><path class="cls-1" d="M481.3,51.47h50.16V67.31H498.13V101.8h29v15.83h-29v34.49h33.33V169H481.3Z"/><path class="cls-1" d="M891.16,142.71a26.7,26.7,0,0,1-2.07,10.4,27.09,27.09,0,0,1-5.69,8.66,27.92,27.92,0,0,1-8.5,5.94,24.78,24.78,0,0,1-10.47,2.23,37.66,37.66,0,0,1-9.74-1.32,23.56,23.56,0,0,1-8.91-4.54,24.47,24.47,0,0,1-6.52-8.49q-2.55-5.28-2.55-13.37V77.54a28.59,28.59,0,0,1,2-10.72,25.36,25.36,0,0,1,5.6-8.58,26.16,26.16,0,0,1,8.67-5.7,29.16,29.16,0,0,1,11.14-2.06,27.71,27.71,0,0,1,10.72,2.06,25.67,25.67,0,0,1,8.58,5.78,26.43,26.43,0,0,1,5.69,8.91,30.24,30.24,0,0,1,2.07,11.3v6.6H874.33V79.52a13.63,13.63,0,0,0-2.81-8.58,9.09,9.09,0,0,0-7.59-3.63q-6.27,0-8.33,3.88A20.7,20.7,0,0,0,853.54,81v60.07a15.6,15.6,0,0,0,2.22,8.58c1.49,2.31,4.15,3.46,8,3.46a12,12,0,0,0,3.54-.58,9.54,9.54,0,0,0,3.47-1.9,9.34,9.34,0,0,0,2.55-3.63,14.46,14.46,0,0,0,1-5.77v-5.77h16.83Z"/><path class="cls-1" d="M955.67,51.47H972.5V101.8h20.79V51.47h16.83V169H993.29v-52.3H972.5V169H955.67Z"/><path class="cls-1" d="M1095.42,51.47h14L1135.68,169h-16.83l-4.95-25.24H1091L1086,169h-16.83Zm7.1,33.83h-.33l-8.25,42.57h16.83Z"/><path class="cls-1" d="M1194.75,51.47h27.06q29.7,0,29.7,34.49a43.69,43.69,0,0,1-3.21,17.57,24.93,24.93,0,0,1-11.31,11.8L1255.14,169h-17.82l-15.67-50.16h-10.07V169h-16.83Zm16.83,52.47h9.57a16.88,16.88,0,0,0,7.1-1.24,9.09,9.09,0,0,0,4-3.54,15.19,15.19,0,0,0,1.9-5.7,54.73,54.73,0,0,0,.49-7.83,54.78,54.78,0,0,0-.49-7.84,14.23,14.23,0,0,0-2.06-5.78,9.46,9.46,0,0,0-4.38-3.55,20,20,0,0,0-7.42-1.15h-8.75Z"/><path class="cls-1" d="M1314.87,79.19a30,30,0,0,1,2.48-12.54,26,26,0,0,1,6.52-9,27.87,27.87,0,0,1,9.07-5.36,29.21,29.21,0,0,1,20.3,0,28.08,28.08,0,0,1,9.07,5.36,26.17,26.17,0,0,1,6.52,9,30,30,0,0,1,2.47,12.54v5.94h-16.83V79.19q0-6.1-3.38-9a12.53,12.53,0,0,0-16,0q-3.37,2.88-3.38,9v62q0,6.11,3.38,9a12.53,12.53,0,0,0,16,0q3.38-2.88,3.38-9V119.12h-13.36V104.27h30.19v37a29.85,29.85,0,0,1-2.47,12.62,26.33,26.33,0,0,1-6.52,8.91,28.11,28.11,0,0,1-9.07,5.37,29.36,29.36,0,0,1-20.3,0,27.9,27.9,0,0,1-9.07-5.37,26.2,26.2,0,0,1-6.52-8.91,29.85,29.85,0,0,1-2.48-12.62Z"/><path class="cls-1" d="M1437,51.47h50.16V67.31H1453.8V101.8h29v15.83h-29v34.49h33.33V169H1437Z"/><path class="cls-2" d="M767.35,86.35a4.71,4.71,0,0,0-8-5l-7.41,12-9.22-5.66,7.36-12a4.7,4.7,0,0,0-8-4.9l-7.37,12-8-4.89-9.11,14.85a23.58,23.58,0,0,0,1.56,26.84c-3.36,5.46-7.34,11.93-11,17.93L680,95.77C704.48,80.46,716.41,63,716.41,42.33,716.41,17,694.52,0,674.08,0a41.29,41.29,0,0,0-28.31,11.54A42.23,42.23,0,0,0,633,42.33c0,14.5,3.71,23,20.8,47.51C634.65,101.34,613,117.58,613,148.48c0,14.88,5.14,27.59,14.85,36.75a48.08,48.08,0,0,0,32.7,12.94c18.95,0,34.73-8.8,48-26.86l15.19,23.18h22.7l-27.11-40.13c4.65-7.62,10.76-17.56,15.56-25.34a23.58,23.58,0,0,0,23.88-10.86l9.13-14.84-8-5Zm-116-44c0-15,11.54-23.92,22.7-23.92,11.32,0,23.93,9.82,23.93,23.92s-9,26.24-28.33,38.16l-.33-.49C652.77,56.32,651.38,51.4,651.38,42.33Zm9.2,137.44a29.55,29.55,0,0,1-20.07-7.92c-6-5.69-9.07-13.55-9.07-23.37,0-21.73,15.64-33.26,32.63-43.35l33.46,49.74C686.74,172.07,675.28,179.77,660.58,179.77Z"/></g></g></svg>